<svg xmlns="http://www.w3.org/2000/svg" width="22" height="22" preserveAspectRatio="none" viewBox="0 0 24 24"><path fill="#4D6182" d="M15.462 10.615a4.852 4.852 0 0 0-4.847-4.846 4.852 4.852 0 0 0-4.846 4.846 4.852 4.852 0 0 0 4.846 4.847 4.852 4.852 0 0 0 4.847-4.847zm5.538 9c0 .758-.627 1.385-1.385 1.385-.367 0-.724-.151-.973-.411l-3.71-3.7a7.598 7.598 0 0 1-4.317 1.342A7.613 7.613 0 0 1 3 10.615 7.613 7.613 0 0 1 10.615 3a7.613 7.613 0 0 1 7.616 7.615c0 1.536-.465 3.05-1.342 4.316l3.71 3.71c.25.25.401.607.401.974z"></path></svg>